<?xml version="1.0" encoding="UTF-8" standalone="no"?>
<svg width="179px" height="229px" viewBox="0 0 179 229" version="1.1" xmlns="http://www.w3.org/2000/svg" xmlns:xlink="http://www.w3.org/1999/xlink">
    <!-- Generator: Sketch 3.6.1 (26313) - http://www.bohemiancoding.com/sketch -->
    <title>Group</title>
    <desc>Created with Sketch.</desc>
    <defs>
        <path id="path-1" d="M0,0.276666667 L91.5880721,0.276666667 L91.5880721,30 L0,30 L0,0.276666667 Z"></path>
        <path id="path-3" d="M0,0.276666667 L91.5880721,0.276666667 L91.5880721,30 L0,30 L0,0.276666667 Z"></path>
        <path id="path-5" d="M0,0.276666667 L91.5880721,0.276666667 L91.5880721,30 L0,30 L0,0.276666667 Z"></path>
    </defs>
    <g id="Page-1" stroke="none" stroke-width="1" fill="none" fill-rule="evenodd">
        <g id="512-copy-2" transform="translate(-168.000000, -163.000000)">
            <g id="Group" transform="translate(120.000000, 120.000000)">
                <g id="Group-63" transform="translate(0.000000, 11.000000)">
                    <g id="Fill-97-+-Fill-100" transform="translate(92.820000, 188.514706)">
                        <path d="M0,64.4659412 C14.0322,69.4861471 29.242395,72.2463578 45.13782,72.2463578 C61.650225,72.2463578 77.429625,69.2772941 91.909545,63.8767696 C88.29912,43.0043676 69.127695,27.0735294 46.00596,27.0735294 C22.668555,27.0735294 3.34698,43.3047549 0,64.4659412" id="Fill-97" fill="#CF5656"></path>
                        <path d="M57.54294,29.569451 L56.239365,29.569451 C56.238,32.2948529 55.07229,34.7508088 53.18313,36.5376618 C51.289875,38.3232255 48.68955,39.4229265 45.80394,39.4242157 C42.91833,39.4229265 40.318005,38.3232255 38.426115,36.5376618 C36.53559,34.7508088 35.36988,32.2948529 35.36988,29.569451 L35.36988,12.3210343 C35.36988,9.59563235 36.53559,7.13838725 38.426115,5.35153431 C40.318005,3.56468137 42.91833,2.46369118 45.80394,2.46369118 C48.68955,2.46369118 51.289875,3.56468137 53.181765,5.35153431 C55.07229,7.13838725 56.238,9.59563235 56.239365,12.3210343 L56.239365,29.569451 L58.84788,29.569451 L58.84788,12.3210343 C58.846515,5.51655392 53.00841,0.00128921569 45.80394,0 C38.59947,0.00128921569 32.761365,5.51655392 32.76,12.3210343 L32.76,29.569451 C32.761365,36.3739314 38.59947,41.8866176 45.80394,41.8879069 C53.00841,41.8866176 58.846515,36.3739314 58.84788,29.569451 L57.54294,29.569451" id="Fill-100" fill="#F0BD93"></path>
                        <path d="M45.864,39.4242157 C39.381615,39.4242157 34.125,34.4620245 34.125,28.33825 L34.125,11.0898333 C34.125,4.96605882 39.381615,0 45.864,0 C52.34775,0 57.603,4.96605882 57.603,11.0898333 L57.603,28.33825 C57.603,34.4620245 52.34775,39.4242157 45.864,39.4242157 Z" id="Fill-99" fill="#F0BD93"></path>
                    </g>
                    <path d="M218.330385,130.297593 C218.330385,177.369436 182.19747,215.527642 137.628855,215.527642 C93.058875,215.527642 56.927325,177.369436 56.927325,130.297593 C56.927325,83.2296176 93.058875,45.0688333 137.628855,45.0688333 C182.19747,45.0688333 218.330385,83.2296176 218.330385,130.297593 L99.645,151.127451" id="Fill-44" fill="#F0BD93"></path>
                    <path d="M185.635905,183.271466 C178.48194,183.271466 172.682055,179.495353 172.682055,174.836127 C172.682055,170.18077 178.48194,166.403368 185.635905,166.403368 C192.791235,166.403368 198.589755,170.18077 198.589755,174.836127 C198.589755,179.495353 192.791235,183.271466 185.635905,183.271466" id="Fill-46" fill="#F0A893"></path>
                    <path d="M89.62317,183.271466 C82.469205,183.271466 76.66932,179.495353 76.66932,174.836127 C76.66932,170.18077 82.469205,166.403368 89.62317,166.403368 C96.777135,166.403368 102.57702,170.18077 102.57702,174.836127 C102.57702,179.495353 96.777135,183.271466 89.62317,183.271466" id="Fill-47" fill="#F0A893"></path>
                    <path d="M137.628855,33.0585 C98.106645,31.3606029 72.409155,43.6635882 55.83669,73.0486814 C42.622125,96.4788873 48.540765,126.656848 60.421725,143.625505 C56.646135,116.157475 76.602435,98.0929853 104.91936,91.6288578 C112.821345,89.8665 125.442135,86.9180637 137.628855,82.4238578 C149.815575,86.9180637 162.435,89.8665 170.339715,91.6288578 C198.655275,98.0929853 218.61294,116.157475 214.835985,143.625505 C226.71831,126.656848 232.63695,96.4788873 219.42102,73.0486814 C202.848555,43.6635882 177.151065,31.3606029 137.628855,33.0585 Z" id="Fill-55" fill-opacity="0.8" fill="#000000"></path>
                    <path d="M137.628855,33.0585 C98.106645,31.3606029 72.409155,43.6635882 55.83669,73.0486814 C51.7629294,80.2717 48.1526686,90.7197747 48,101.999997 C47.6574384,127.310837 57.3016789,157.438876 65.5199995,169.176468 C61.7444095,141.708439 76.602435,98.0929853 104.91936,91.6288578 C112.821345,89.8665 125.442135,86.9180637 137.628855,82.4238578 C149.815575,86.9180637 162.435,89.8665 170.339715,91.6288578 C198.655275,98.0929853 215.351956,133.973145 211.575001,161.441174 C219.707106,149.828051 227.712372,123.897779 226.999994,101.040608 C226.671472,90.4997437 223.592143,80.4435661 219.42102,73.0486814 C202.848555,43.6635882 177.151065,31.3606029 137.628855,33.0585 Z" id="Fill-55-Copy" fill="#414342"></path>
                    <g id="Fill-97-+-Fill-100-Copy" transform="translate(92.820000, 188.514706)">
                        <path d="M0,64.4659412 C14.0322,69.4861471 29.242395,72.2463578 45.13782,72.2463578 C61.650225,72.2463578 77.429625,69.2772941 91.909545,63.8767696 C88.29912,43.0043676 69.127695,27.0735294 46.00596,27.0735294 C22.668555,27.0735294 3.34698,43.3047549 0,64.4659412" id="Fill-97" fill="#CF5656"></path>
                        <path d="M57.54294,29.569451 L56.239365,29.569451 C56.238,32.2948529 55.07229,34.7508088 53.18313,36.5376618 C51.289875,38.3232255 48.68955,39.4229265 45.80394,39.4242157 C42.91833,39.4229265 40.318005,38.3232255 38.426115,36.5376618 C36.53559,34.7508088 35.36988,32.2948529 35.36988,29.569451 L35.36988,12.3210343 C35.36988,9.59563235 36.53559,7.13838725 38.426115,5.35153431 C40.318005,3.56468137 42.91833,2.46369118 45.80394,2.46369118 C48.68955,2.46369118 51.289875,3.56468137 53.181765,5.35153431 C55.07229,7.13838725 56.238,9.59563235 56.239365,12.3210343 L56.239365,29.569451 L58.84788,29.569451 L58.84788,12.3210343 C58.846515,5.51655392 53.00841,0.00128921569 45.80394,0 C38.59947,0.00128921569 32.761365,5.51655392 32.76,12.3210343 L32.76,29.569451 C32.761365,36.3739314 38.59947,41.8866176 45.80394,41.8879069 C53.00841,41.8866176 58.846515,36.3739314 58.84788,29.569451 L57.54294,29.569451" id="Fill-100" fill="#F0BD93"></path>
                        <path d="M45.864,39.4242157 C39.381615,39.4242157 34.125,34.4620245 34.125,28.33825 L34.125,11.0898333 C34.125,4.96605882 39.381615,0 45.864,0 C52.34775,0 57.603,4.96605882 57.603,11.0898333 L57.603,28.33825 C57.603,34.4620245 52.34775,39.4242157 45.864,39.4242157 Z" id="Fill-99" fill="#F0BD93"></path>
                    </g>
                    <path d="M218.330385,130.297593 C218.330385,177.369436 182.19747,215.527642 137.628855,215.527642 C93.058875,215.527642 56.927325,177.369436 56.927325,130.297593 C56.927325,83.2296176 93.058875,45.0688333 137.628855,45.0688333 C182.19747,45.0688333 218.330385,83.2296176 218.330385,130.297593 L99.645,151.127451" id="Fill-44-Copy" fill="#F0BD93"></path>
                    <path d="M185.635905,183.271466 C178.48194,183.271466 172.682055,179.495353 172.682055,174.836127 C172.682055,170.18077 178.48194,166.403368 185.635905,166.403368 C192.791235,166.403368 198.589755,170.18077 198.589755,174.836127 C198.589755,179.495353 192.791235,183.271466 185.635905,183.271466" id="Fill-46-Copy" fill="#F0A893"></path>
                    <path d="M89.62317,183.271466 C82.469205,183.271466 76.66932,179.495353 76.66932,174.836127 C76.66932,170.18077 82.469205,166.403368 89.62317,166.403368 C96.777135,166.403368 102.57702,170.18077 102.57702,174.836127 C102.57702,179.495353 96.777135,183.271466 89.62317,183.271466" id="Fill-47-Copy" fill="#F0A893"></path>
                    <path d="M137.628855,33.0585 C98.106645,31.3606029 72.409155,43.6635882 55.83669,73.0486814 C42.622125,96.4788873 48.540765,126.656848 60.421725,143.625505 C56.646135,116.157475 76.602435,98.0929853 104.91936,91.6288578 C112.821345,89.8665 125.442135,86.9180637 137.628855,82.4238578 C149.815575,86.9180637 162.435,89.8665 170.339715,91.6288578 C198.655275,98.0929853 218.61294,116.157475 214.835985,143.625505 C226.71831,126.656848 232.63695,96.4788873 219.42102,73.0486814 C202.848555,43.6635882 177.151065,31.3606029 137.628855,33.0585 Z" id="Fill-55-Copy-3" fill-opacity="0.8" fill="#000000"></path>
                    <path d="M137.628855,33.0585 C98.106645,31.3606029 72.409155,43.6635882 55.83669,73.0486814 C51.7629294,80.2717 48.1526686,90.7197747 48,101.999997 C47.6574384,127.310837 57.3016789,157.438876 65.5199995,169.176468 C61.7444095,141.708439 76.602435,98.0929853 104.91936,91.6288578 C112.821345,89.8665 125.442135,86.9180637 137.628855,82.4238578 C149.815575,86.9180637 162.435,89.8665 170.339715,91.6288578 C198.655275,98.0929853 215.351956,133.973145 211.575001,161.441174 C219.707106,149.828051 227.712372,123.897779 226.999994,101.040608 C226.671472,90.4997437 223.592143,80.4435661 219.42102,73.0486814 C202.848555,43.6635882 177.151065,31.3606029 137.628855,33.0585 Z" id="Fill-55-Copy-2" fill="#414342"></path>
                    <g id="Fill-97-+-Fill-100-Copy-2" transform="translate(92.820000, 188.514706)">
                        <path d="M0,64.4659412 C14.0322,69.4861471 29.242395,72.2463578 45.13782,72.2463578 C61.650225,72.2463578 77.429625,69.2772941 91.909545,63.8767696 C88.29912,43.0043676 69.127695,27.0735294 46.00596,27.0735294 C22.668555,27.0735294 3.34698,43.3047549 0,64.4659412" id="Fill-97" fill="#CF5656"></path>
                        <path d="M57.54294,29.569451 L56.239365,29.569451 C56.238,32.2948529 55.07229,34.7508088 53.18313,36.5376618 C51.289875,38.3232255 48.68955,39.4229265 45.80394,39.4242157 C42.91833,39.4229265 40.318005,38.3232255 38.426115,36.5376618 C36.53559,34.7508088 35.36988,32.2948529 35.36988,29.569451 L35.36988,12.3210343 C35.36988,9.59563235 36.53559,7.13838725 38.426115,5.35153431 C40.318005,3.56468137 42.91833,2.46369118 45.80394,2.46369118 C48.68955,2.46369118 51.289875,3.56468137 53.181765,5.35153431 C55.07229,7.13838725 56.238,9.59563235 56.239365,12.3210343 L56.239365,29.569451 L58.84788,29.569451 L58.84788,12.3210343 C58.846515,5.51655392 53.00841,0.00128921569 45.80394,0 C38.59947,0.00128921569 32.761365,5.51655392 32.76,12.3210343 L32.76,29.569451 C32.761365,36.3739314 38.59947,41.8866176 45.80394,41.8879069 C53.00841,41.8866176 58.846515,36.3739314 58.84788,29.569451 L57.54294,29.569451" id="Fill-100" fill="#F0BD93"></path>
                        <path d="M45.864,39.4242157 C39.381615,39.4242157 34.125,34.4620245 34.125,28.33825 L34.125,11.0898333 C34.125,4.96605882 39.381615,0 45.864,0 C52.34775,0 57.603,4.96605882 57.603,11.0898333 L57.603,28.33825 C57.603,34.4620245 52.34775,39.4242157 45.864,39.4242157 Z" id="Fill-99" fill="#F0BD93"></path>
                    </g>
                    <path d="M218.330385,130.297593 C218.330385,177.369436 182.19747,215.527642 137.628855,215.527642 C93.058875,215.527642 56.927325,177.369436 56.927325,130.297593 C56.927325,83.2296176 93.058875,45.0688333 137.628855,45.0688333 C182.19747,45.0688333 218.330385,83.2296176 218.330385,130.297593 L99.645,151.127451" id="Fill-44-Copy-2" fill="#F0BD93"></path>
                    <path d="M185.635905,183.271466 C178.48194,183.271466 172.682055,179.495353 172.682055,174.836127 C172.682055,170.18077 178.48194,166.403368 185.635905,166.403368 C192.791235,166.403368 198.589755,170.18077 198.589755,174.836127 C198.589755,179.495353 192.791235,183.271466 185.635905,183.271466" id="Fill-46-Copy-2" fill="#F0A893"></path>
                    <path d="M89.62317,183.271466 C82.469205,183.271466 76.66932,179.495353 76.66932,174.836127 C76.66932,170.18077 82.469205,166.403368 89.62317,166.403368 C96.777135,166.403368 102.57702,170.18077 102.57702,174.836127 C102.57702,179.495353 96.777135,183.271466 89.62317,183.271466" id="Fill-47-Copy-2" fill="#F0A893"></path>
                    <path d="M137.628855,33.0585 C98.106645,31.3606029 72.409155,43.6635882 55.83669,73.0486814 C42.622125,96.4788873 48.540765,126.656848 60.421725,143.625505 C56.646135,116.157475 76.602435,98.0929853 104.91936,91.6288578 C112.821345,89.8665 125.442135,86.9180637 137.628855,82.4238578 C149.815575,86.9180637 162.435,89.8665 170.339715,91.6288578 C198.655275,98.0929853 218.61294,116.157475 214.835985,143.625505 C226.71831,126.656848 232.63695,96.4788873 219.42102,73.0486814 C202.848555,43.6635882 177.151065,31.3606029 137.628855,33.0585 Z" id="Fill-55-Copy-5" fill-opacity="0.8" fill="#000000"></path>
                    <path d="M137.628855,33.0585 C98.106645,31.3606029 72.409155,43.6635882 55.83669,73.0486814 C51.7629294,80.2717 48.1526686,90.7197747 48,101.999997 C47.6574384,127.310837 57.3016789,157.438876 65.5199995,169.176468 C61.7444095,141.708439 76.602435,98.0929853 104.91936,91.6288578 C112.821345,89.8665 125.442135,86.9180637 137.628855,82.4238578 C149.815575,86.9180637 162.435,89.8665 170.339715,91.6288578 C198.655275,98.0929853 215.351956,133.973145 211.575001,161.441174 C219.707106,149.828051 227.712372,123.897779 226.999994,101.040608 C226.671472,90.4997437 223.592143,80.4435661 219.42102,73.0486814 C202.848555,43.6635882 177.151065,31.3606029 137.628855,33.0585 Z" id="Fill-55-Copy-4" fill="#414342"></path>
                </g>
                <g id="Oval-13-+-Oval-14-+-Oval-13-Copy-+-Oval-14-Copy-+-glassees" transform="translate(96.000000, 118.000000)">
                    <g id="Oval-13-+-Oval-14" transform="translate(12.000000, 4.000000)">
                        <circle id="Oval-13" fill="#FFFFFF" cx="10.5" cy="10.5" r="10.5"></circle>
                        <circle id="Oval-14" fill="#4A4A4A" cx="11" cy="11" r="5"></circle>
                    </g>
                    <g id="Oval-13-Copy-+-Oval-14-Copy" transform="translate(59.000000, 4.000000)">
                        <circle id="Oval-13-Copy" fill="#FFFFFF" cx="10.5" cy="10.5" r="10.5"></circle>
                        <circle id="Oval-14-Copy" fill="#4A4A4A" cx="11" cy="11" r="5"></circle>
                    </g>
                    <g id="glassees">
                        <mask id="mask-2" fill="white">
                            <use xlink:href="#path-1"></use>
                        </mask>
                        <g id="Clip-2"></g>
                        <path d="M84.2661153,18.9144167 C84.2661153,23.2035833 80.6806018,26.68025 76.2546559,26.68025 L63.8885297,26.68025 C59.4658991,26.68025 55.8787279,23.2035833 55.8787279,18.9144167 L55.8787279,11.3619167 C55.8787279,7.07275 59.4658991,3.59608333 63.8885297,3.59608333 L76.2546559,3.59608333 C80.6806018,3.59608333 84.2661153,7.07275 84.2661153,11.3619167 L84.2661153,18.9144167 Z M35.9445658,18.9144167 C35.9445658,23.2035833 32.3590523,26.68025 27.934764,26.68025 L15.5686378,26.68025 C11.1451784,26.68025 7.55883604,23.2035833 7.55883604,18.9144167 L7.55883604,11.3619167 C7.55883604,7.07275 11.1451784,3.59608333 15.5686378,3.59608333 L27.934764,3.59608333 C32.3590523,3.59608333 35.9445658,7.07275 35.9445658,11.3619167 L35.9445658,18.9144167 Z M91.5879892,10.5244167 L87.6966378,10.5244167 L87.6966378,10.2769167 C87.6966378,4.75358333 83.2433405,0.276916667 77.7506919,0.276916667 L62.3941514,0.276916667 C56.9015027,0.276916667 52.4482054,4.75358333 52.4482054,10.2769167 L52.4482054,11.85275 L39.3750883,11.85275 L39.3750883,10.2769167 C39.3750883,4.75358333 34.9234486,0.276916667 29.4291423,0.276916667 L14.0742595,0.276916667 C8.58161081,0.276916667 4.12831351,4.75358333 4.12831351,10.2769167 L4.12831351,10.5244167 L-8.28828829e-05,10.5244167 L-8.28828829e-05,16.74525 L4.12831351,16.74525 L4.12831351,20.00025 C4.12831351,25.5235833 8.58161081,30.00025 14.0742595,30.00025 L29.4291423,30.00025 C34.9234486,30.00025 39.3750883,25.5235833 39.3750883,20.00025 L39.3750883,16.2960833 L52.4482054,16.2960833 L52.4482054,20.00025 C52.4482054,25.5235833 56.9015027,30.00025 62.3941514,30.00025 L77.7506919,30.00025 C83.2433405,30.00025 87.6966378,25.5235833 87.6966378,20.00025 L87.6966378,16.74525 L91.5879892,16.74525 L91.5879892,10.5244167 Z" id="Fill-1" fill="#4A4A4A" mask="url(#mask-2)"></path>
                    </g>
                </g>
                <g id="Fill-65-+-Fill-65-Copy" transform="translate(133.000000, 163.000000)" fill="#9C6550">
                    <path d="M15.606003,1.956 C15.605003,2.905 15.416003,3.664 15.098003,4.289 C14.618003,5.222 13.832003,5.897 12.742003,6.373 C11.656003,6.844 10.277003,7.083 8.75900301,7.082 C6.73100301,7.085 4.96400301,6.654 3.78600301,5.828 C3.19400301,5.415 2.74000301,4.914 2.41900301,4.289 C2.10000301,3.664 1.91200301,2.905 1.91100301,1.956 C1.91100301,1.428 1.48300301,1 0.955003012,1 C0.427003012,1 3.01225873e-06,1.428 3.01225873e-06,1.956 C-0.000996987741,3.161 0.247003012,4.24 0.718003012,5.159 C1.42300301,6.544 2.61600301,7.525 4.01600301,8.127 C5.42100301,8.733 7.04500301,8.992 8.75900301,8.993 C11.041003,8.99 13.175003,8.536 14.822003,7.398 C15.642003,6.829 16.330003,6.079 16.799003,5.159 C17.270003,4.24 17.518003,3.161 17.517003,1.956 C17.517003,1.428 17.089003,1 16.562003,1 C16.034003,1 15.606003,1.428 15.606003,1.956" id="Fill-65"></path>
                    <path d="M15.606003,0.956 C15.605003,1.905 15.416003,2.664 15.098003,3.289 C14.618003,4.222 13.832003,4.897 12.742003,5.373 C11.656003,5.844 10.277003,6.083 8.75900301,6.082 C6.73100301,6.085 4.96400301,5.654 3.78600301,4.828 C3.19400301,4.415 2.74000301,3.914 2.41900301,3.289 C2.10000301,2.664 1.91200301,1.905 1.91100301,0.956 C1.91100301,0.428 1.48300301,0 0.955003012,0 C0.427003012,0 3.01225873e-06,0.428 3.01225873e-06,0.956 C-0.000996987741,2.161 0.247003012,3.24 0.718003012,4.159 C1.42300301,5.544 2.61600301,6.525 4.01600301,7.127 C5.42100301,7.733 7.04500301,7.992 8.75900301,7.993 C11.041003,7.99 13.175003,7.536 14.822003,6.398 C15.642003,5.829 16.330003,5.079 16.799003,4.159 C17.270003,3.24 17.518003,2.161 17.517003,0.956 C17.517003,0.428 17.089003,0 16.562003,0 C16.034003,0 15.606003,0.428 15.606003,0.956" id="Fill-65-Copy"></path>
                </g>
                <g id="Oval-13-+-Oval-14-+-Oval-13-Copy-+-Oval-14-Copy-+-glassees-Copy" transform="translate(96.000000, 118.000000)">
                    <g id="Oval-13-+-Oval-14" transform="translate(12.000000, 4.000000)">
                        <circle id="Oval-13" fill="#FFFFFF" cx="10.5" cy="10.5" r="10.5"></circle>
                        <circle id="Oval-14" fill="#4A4A4A" cx="11" cy="11" r="5"></circle>
                    </g>
                    <g id="Oval-13-Copy-+-Oval-14-Copy" transform="translate(59.000000, 4.000000)">
                        <circle id="Oval-13-Copy" fill="#FFFFFF" cx="10.5" cy="10.5" r="10.5"></circle>
                        <circle id="Oval-14-Copy" fill="#4A4A4A" cx="11" cy="11" r="5"></circle>
                    </g>
                    <g id="glassees">
                        <mask id="mask-4" fill="white">
                            <use xlink:href="#path-3"></use>
                        </mask>
                        <g id="Clip-2"></g>
                        <path d="M84.2661153,18.9144167 C84.2661153,23.2035833 80.6806018,26.68025 76.2546559,26.68025 L63.8885297,26.68025 C59.4658991,26.68025 55.8787279,23.2035833 55.8787279,18.9144167 L55.8787279,11.3619167 C55.8787279,7.07275 59.4658991,3.59608333 63.8885297,3.59608333 L76.2546559,3.59608333 C80.6806018,3.59608333 84.2661153,7.07275 84.2661153,11.3619167 L84.2661153,18.9144167 Z M35.9445658,18.9144167 C35.9445658,23.2035833 32.3590523,26.68025 27.934764,26.68025 L15.5686378,26.68025 C11.1451784,26.68025 7.55883604,23.2035833 7.55883604,18.9144167 L7.55883604,11.3619167 C7.55883604,7.07275 11.1451784,3.59608333 15.5686378,3.59608333 L27.934764,3.59608333 C32.3590523,3.59608333 35.9445658,7.07275 35.9445658,11.3619167 L35.9445658,18.9144167 Z M91.5879892,10.5244167 L87.6966378,10.5244167 L87.6966378,10.2769167 C87.6966378,4.75358333 83.2433405,0.276916667 77.7506919,0.276916667 L62.3941514,0.276916667 C56.9015027,0.276916667 52.4482054,4.75358333 52.4482054,10.2769167 L52.4482054,11.85275 L39.3750883,11.85275 L39.3750883,10.2769167 C39.3750883,4.75358333 34.9234486,0.276916667 29.4291423,0.276916667 L14.0742595,0.276916667 C8.58161081,0.276916667 4.12831351,4.75358333 4.12831351,10.2769167 L4.12831351,10.5244167 L-8.28828829e-05,10.5244167 L-8.28828829e-05,16.74525 L4.12831351,16.74525 L4.12831351,20.00025 C4.12831351,25.5235833 8.58161081,30.00025 14.0742595,30.00025 L29.4291423,30.00025 C34.9234486,30.00025 39.3750883,25.5235833 39.3750883,20.00025 L39.3750883,16.2960833 L52.4482054,16.2960833 L52.4482054,20.00025 C52.4482054,25.5235833 56.9015027,30.00025 62.3941514,30.00025 L77.7506919,30.00025 C83.2433405,30.00025 87.6966378,25.5235833 87.6966378,20.00025 L87.6966378,16.74525 L91.5879892,16.74525 L91.5879892,10.5244167 Z" id="Fill-1" fill="#4A4A4A" mask="url(#mask-4)"></path>
                    </g>
                </g>
                <g id="Fill-65-+-Fill-65-Copy-2" transform="translate(133.000000, 163.000000)" fill="#9C6550">
                    <path d="M15.606003,1.956 C15.605003,2.905 15.416003,3.664 15.098003,4.289 C14.618003,5.222 13.832003,5.897 12.742003,6.373 C11.656003,6.844 10.277003,7.083 8.75900301,7.082 C6.73100301,7.085 4.96400301,6.654 3.78600301,5.828 C3.19400301,5.415 2.74000301,4.914 2.41900301,4.289 C2.10000301,3.664 1.91200301,2.905 1.91100301,1.956 C1.91100301,1.428 1.48300301,1 0.955003012,1 C0.427003012,1 3.01225873e-06,1.428 3.01225873e-06,1.956 C-0.000996987741,3.161 0.247003012,4.24 0.718003012,5.159 C1.42300301,6.544 2.61600301,7.525 4.01600301,8.127 C5.42100301,8.733 7.04500301,8.992 8.75900301,8.993 C11.041003,8.99 13.175003,8.536 14.822003,7.398 C15.642003,6.829 16.330003,6.079 16.799003,5.159 C17.270003,4.24 17.518003,3.161 17.517003,1.956 C17.517003,1.428 17.089003,1 16.562003,1 C16.034003,1 15.606003,1.428 15.606003,1.956" id="Fill-65"></path>
                    <path d="M15.606003,0.956 C15.605003,1.905 15.416003,2.664 15.098003,3.289 C14.618003,4.222 13.832003,4.897 12.742003,5.373 C11.656003,5.844 10.277003,6.083 8.75900301,6.082 C6.73100301,6.085 4.96400301,5.654 3.78600301,4.828 C3.19400301,4.415 2.74000301,3.914 2.41900301,3.289 C2.10000301,2.664 1.91200301,1.905 1.91100301,0.956 C1.91100301,0.428 1.48300301,0 0.955003012,0 C0.427003012,0 3.01225873e-06,0.428 3.01225873e-06,0.956 C-0.000996987741,2.161 0.247003012,3.24 0.718003012,4.159 C1.42300301,5.544 2.61600301,6.525 4.01600301,7.127 C5.42100301,7.733 7.04500301,7.992 8.75900301,7.993 C11.041003,7.99 13.175003,7.536 14.822003,6.398 C15.642003,5.829 16.330003,5.079 16.799003,4.159 C17.270003,3.24 17.518003,2.161 17.517003,0.956 C17.517003,0.428 17.089003,0 16.562003,0 C16.034003,0 15.606003,0.428 15.606003,0.956" id="Fill-65-Copy"></path>
                </g>
                <g id="Oval-13-+-Oval-14-+-Oval-13-Copy-+-Oval-14-Copy-+-glassees-Copy-Copy" transform="translate(96.000000, 118.000000)">
                    <g id="Oval-13-+-Oval-14" transform="translate(12.000000, 4.000000)">
                        <circle id="Oval-13" fill="#FFFFFF" cx="10.5" cy="10.5" r="10.5"></circle>
                        <circle id="Oval-14" fill="#4A4A4A" cx="11" cy="11" r="5"></circle>
                    </g>
                    <g id="Oval-13-Copy-+-Oval-14-Copy" transform="translate(59.000000, 4.000000)">
                        <circle id="Oval-13-Copy" fill="#FFFFFF" cx="10.5" cy="10.5" r="10.5"></circle>
                        <circle id="Oval-14-Copy" fill="#4A4A4A" cx="11" cy="11" r="5"></circle>
                    </g>
                    <g id="glassees">
                        <mask id="mask-6" fill="white">
                            <use xlink:href="#path-5"></use>
                        </mask>
                        <g id="Clip-2"></g>
                        <path d="M84.2661153,18.9144167 C84.2661153,23.2035833 80.6806018,26.68025 76.2546559,26.68025 L63.8885297,26.68025 C59.4658991,26.68025 55.8787279,23.2035833 55.8787279,18.9144167 L55.8787279,11.3619167 C55.8787279,7.07275 59.4658991,3.59608333 63.8885297,3.59608333 L76.2546559,3.59608333 C80.6806018,3.59608333 84.2661153,7.07275 84.2661153,11.3619167 L84.2661153,18.9144167 Z M35.9445658,18.9144167 C35.9445658,23.2035833 32.3590523,26.68025 27.934764,26.68025 L15.5686378,26.68025 C11.1451784,26.68025 7.55883604,23.2035833 7.55883604,18.9144167 L7.55883604,11.3619167 C7.55883604,7.07275 11.1451784,3.59608333 15.5686378,3.59608333 L27.934764,3.59608333 C32.3590523,3.59608333 35.9445658,7.07275 35.9445658,11.3619167 L35.9445658,18.9144167 Z M91.5879892,10.5244167 L87.6966378,10.5244167 L87.6966378,10.2769167 C87.6966378,4.75358333 83.2433405,0.276916667 77.7506919,0.276916667 L62.3941514,0.276916667 C56.9015027,0.276916667 52.4482054,4.75358333 52.4482054,10.2769167 L52.4482054,11.85275 L39.3750883,11.85275 L39.3750883,10.2769167 C39.3750883,4.75358333 34.9234486,0.276916667 29.4291423,0.276916667 L14.0742595,0.276916667 C8.58161081,0.276916667 4.12831351,4.75358333 4.12831351,10.2769167 L4.12831351,10.5244167 L-8.28828829e-05,10.5244167 L-8.28828829e-05,16.74525 L4.12831351,16.74525 L4.12831351,20.00025 C4.12831351,25.5235833 8.58161081,30.00025 14.0742595,30.00025 L29.4291423,30.00025 C34.9234486,30.00025 39.3750883,25.5235833 39.3750883,20.00025 L39.3750883,16.2960833 L52.4482054,16.2960833 L52.4482054,20.00025 C52.4482054,25.5235833 56.9015027,30.00025 62.3941514,30.00025 L77.7506919,30.00025 C83.2433405,30.00025 87.6966378,25.5235833 87.6966378,20.00025 L87.6966378,16.74525 L91.5879892,16.74525 L91.5879892,10.5244167 Z" id="Fill-1" fill="#4A4A4A" mask="url(#mask-6)"></path>
                    </g>
                </g>
                <g id="Fill-65-+-Fill-65-Copy-3" transform="translate(133.000000, 163.000000)" fill="#9C6550">
                    <path d="M15.606003,1.956 C15.605003,2.905 15.416003,3.664 15.098003,4.289 C14.618003,5.222 13.832003,5.897 12.742003,6.373 C11.656003,6.844 10.277003,7.083 8.75900301,7.082 C6.73100301,7.085 4.96400301,6.654 3.78600301,5.828 C3.19400301,5.415 2.74000301,4.914 2.41900301,4.289 C2.10000301,3.664 1.91200301,2.905 1.91100301,1.956 C1.91100301,1.428 1.48300301,1 0.955003012,1 C0.427003012,1 3.01225873e-06,1.428 3.01225873e-06,1.956 C-0.000996987741,3.161 0.247003012,4.24 0.718003012,5.159 C1.42300301,6.544 2.61600301,7.525 4.01600301,8.127 C5.42100301,8.733 7.04500301,8.992 8.75900301,8.993 C11.041003,8.99 13.175003,8.536 14.822003,7.398 C15.642003,6.829 16.330003,6.079 16.799003,5.159 C17.270003,4.24 17.518003,3.161 17.517003,1.956 C17.517003,1.428 17.089003,1 16.562003,1 C16.034003,1 15.606003,1.428 15.606003,1.956" id="Fill-65"></path>
                    <path d="M15.606003,0.956 C15.605003,1.905 15.416003,2.664 15.098003,3.289 C14.618003,4.222 13.832003,4.897 12.742003,5.373 C11.656003,5.844 10.277003,6.083 8.75900301,6.082 C6.73100301,6.085 4.96400301,5.654 3.78600301,4.828 C3.19400301,4.415 2.74000301,3.914 2.41900301,3.289 C2.10000301,2.664 1.91200301,1.905 1.91100301,0.956 C1.91100301,0.428 1.48300301,0 0.955003012,0 C0.427003012,0 3.01225873e-06,0.428 3.01225873e-06,0.956 C-0.000996987741,2.161 0.247003012,3.24 0.718003012,4.159 C1.42300301,5.544 2.61600301,6.525 4.01600301,7.127 C5.42100301,7.733 7.04500301,7.992 8.75900301,7.993 C11.041003,7.99 13.175003,7.536 14.822003,6.398 C15.642003,5.829 16.330003,5.079 16.799003,4.159 C17.270003,3.24 17.518003,2.161 17.517003,0.956 C17.517003,0.428 17.089003,0 16.562003,0 C16.034003,0 15.606003,0.428 15.606003,0.956" id="Fill-65-Copy"></path>
                </g>
            </g>
        </g>
    </g>
</svg>