<?xml version="1.0" encoding="UTF-8" standalone="no"?>
<svg width="297px" height="91px" viewBox="0 0 297 91" version="1.1" xmlns="http://www.w3.org/2000/svg" xmlns:xlink="http://www.w3.org/1999/xlink">
    <!-- Generator: Sketch 3.7.2 (28276) - http://www.bohemiancoding.com/sketch -->
    <title>Asthma care</title>
    <desc>Created with Sketch.</desc>
    <defs></defs>
    <g id="Page-1" stroke="none" stroke-width="1" fill="none" fill-rule="evenodd">
        <g id="0410---feature-section-1-(overview)" transform="translate(-223.000000, -236.000000)">
            <g id="Asthma-care" transform="translate(223.000000, 236.000000)">
                <rect id="Rectangle-630" fill="#70C1B3" x="0" y="0" width="297" height="91"></rect>
                <g id="Group-8" transform="translate(23.000000, 25.000000)" fill="#FFFFFF">
                    <g id="Group-15">
                        <path d="M259.335673,18.8594569 L244.148062,0.640211924 C243.519735,-0.114779811 242.395859,-0.217000914 241.641422,0.413547739 C240.88532,1.04520749 240.783098,2.16463968 241.412536,2.92018697 L255.650713,20 L241.412536,37.0787019 C240.78421,37.8359159 240.886431,38.9559036 241.641422,39.5864523 C242.395303,40.2170009 243.519735,40.1147798 244.148062,39.3597881 L259.335673,21.1416542 C259.612337,20.8105467 259.750113,20.4049956 259.750113,20 C259.750113,19.5944489 259.612337,19.1894533 259.335673,18.8594569 L259.335673,18.8594569 Z" id="Shape"></path>
                        <text id="Asthma-Care" font-family="ProximaNova-Semibold, Proxima Nova" font-size="25" font-weight="500" line-spacing="29">
                            <tspan x="0" y="31">Asthma Care</tspan>
                        </text>
                    </g>
                </g>
            </g>
        </g>
    </g>
</svg>